# Blender v3.6.1 OBJ File: ''
# www.blender.org
mtllib Short_sword.mtl
o Cube
v 1.121842 0.490020 0.304648
v 1.121842 -0.490020 0.304648
v 1.121842 0.490020 -0.304648
v 1.121842 -0.490020 -0.304648
v -1.121842 0.490020 0.304648
v -1.121842 -0.490020 0.304648
v -1.121842 0.490020 -0.304648
v -1.121842 -0.490020 -0.304648
vt 0.625000 0.500000
vt 0.625000 0.750000
vt 0.875000 0.750000
vt 0.875000 0.500000
vt 0.375000 0.750000
vt 0.375000 1.000000
vt 0.625000 1.000000
vt 0.375000 0.000000
vt 0.375000 0.250000
vt 0.625000 0.250000
vt 0.625000 0.000000
vt 0.125000 0.500000
vt 0.125000 0.750000
vt 0.375000 0.500000
vn 0.0000 1.0000 0.0000
vn 0.0000 0.0000 -1.0000
vn -1.0000 0.0000 0.0000
vn 0.0000 -1.0000 0.0000
vn 1.0000 0.0000 0.0000
vn 0.0000 0.0000 1.0000
usemtl Material
s off
f 1/1/1 3/2/1 7/3/1 5/4/1
f 4/5/2 8/6/2 7/7/2 3/2/2
f 8/8/3 6/9/3 5/10/3 7/11/3
f 6/12/4 8/13/4 4/5/4 2/14/4
f 2/14/5 4/5/5 3/2/5 1/1/5
f 6/9/6 2/14/6 1/1/6 5/10/6
o Cube.001
v -0.280575 -0.023292 4.646562
v -0.284824 0.078711 4.653461
v -0.551937 -0.361199 -0.259350
v -0.551937 0.361199 -0.259350
v 0.042808 0.005475 4.683587
v 0.026631 0.054376 4.605605
v 0.518127 -0.361199 -0.259350
v 0.518127 0.361199 -0.259350
vt 0.375000 0.000000
vt 0.625000 0.000000
vt 0.625000 0.250000
vt 0.375000 0.250000
vt 0.625000 0.500000
vt 0.375000 0.500000
vt 0.625000 0.750000
vt 0.375000 0.750000
vt 0.625000 1.000000
vt 0.375000 1.000000
vt 0.125000 0.500000
vt 0.125000 0.750000
vt 0.875000 0.500000
vt 0.875000 0.750000
vn -0.9985 -0.0056 0.0548
vn 0.0000 0.0000 -1.0000
vn 0.9947 0.0308 0.0979
vn 0.0124 0.4275 0.9039
vn 0.0187 -0.9972 0.0717
vn 0.0197 0.9980 0.0606
usemtl Material.001
s off
f 9/15/7 10/16/7 12/17/7 11/18/7
f 11/18/8 12/17/8 16/19/8 15/20/8
f 15/20/9 16/19/9 14/21/9 13/22/9
f 13/22/10 14/21/10 10/23/10 9/24/10
f 11/25/11 15/20/11 13/22/11 9/26/11
f 16/19/12 12/27/12 10/28/12 14/21/12
o Cube.002
v -0.302119 -0.309664 -0.217187
v -0.302119 0.240793 -0.217187
v -0.302119 -0.309664 -2.217186
v -0.302119 0.240793 -2.217186
v 0.311633 -0.309664 -0.217187
v 0.311633 0.240793 -0.217187
v 0.311633 -0.309664 -2.217186
v 0.311633 0.240793 -2.217186
vt 0.375000 0.000000
vt 0.625000 0.000000
vt 0.625000 0.250000
vt 0.375000 0.250000
vt 0.625000 0.500000
vt 0.375000 0.500000
vt 0.625000 0.750000
vt 0.375000 0.750000
vt 0.625000 1.000000
vt 0.375000 1.000000
vt 0.125000 0.500000
vt 0.125000 0.750000
vt 0.875000 0.500000
vt 0.875000 0.750000
vn -1.0000 0.0000 0.0000
vn 0.0000 0.0000 -1.0000
vn 1.0000 0.0000 0.0000
vn 0.0000 0.0000 1.0000
vn 0.0000 -1.0000 0.0000
vn 0.0000 1.0000 0.0000
usemtl Material.002
s off
f 17/29/13 18/30/13 20/31/13 19/32/13
f 19/32/14 20/31/14 24/33/14 23/34/14
f 23/34/15 24/33/15 22/35/15 21/36/15
f 21/36/16 22/35/16 18/37/16 17/38/16
f 19/39/17 23/34/17 21/36/17 17/40/17
f 24/33/18 20/41/18 18/42/18 22/35/18
