# Blender v3.6.1 OBJ File: ''
# www.blender.org
mtllib untitled.mtl
o Cube_Cube.001
v 3.975505 4.172185 3.807311
v 3.975505 4.244786 4.436826
v 3.899664 4.244786 3.807311
v 3.975505 4.181885 4.121656
v 3.937634 4.181885 3.807312
v 3.939237 4.191306 4.108353
v 3.937634 4.244786 4.352726
v 3.975505 4.208533 4.352726
v 3.939237 4.210067 4.271033
v 3.909796 4.208533 3.807312
v 3.909796 4.244786 4.121656
v 3.919638 4.210067 4.108353
v 3.975505 5.007088 4.436826
v 3.975505 5.079689 3.807311
v 3.899664 5.007088 3.807311
v 3.975505 5.043341 4.352726
v 3.937634 5.007088 4.352726
v 3.939237 5.041807 4.271033
v 3.937634 5.069989 3.807312
v 3.975505 5.069989 4.121656
v 3.939237 5.060568 4.108353
v 3.909796 5.007088 4.121656
v 3.909796 5.043341 3.807312
v 3.919638 5.041807 4.108353
v 3.975505 4.172185 -2.802589
v 3.899664 4.244786 -2.802589
v 3.975505 4.244786 -3.432104
v 3.937634 4.181885 -2.802589
v 3.975505 4.181885 -3.116934
v 3.939237 4.191306 -3.103630
v 3.909796 4.244786 -3.116934
v 3.909796 4.208533 -2.802589
v 3.919638 4.210067 -3.103630
v 3.975505 4.208533 -3.348003
v 3.937634 4.244786 -3.348003
v 3.939237 4.210067 -3.266310
v 3.975505 5.079689 -2.802589
v 3.975505 5.007088 -3.432104
v 3.899664 5.007088 -2.802589
v 3.975505 5.069989 -3.116934
v 3.937634 5.069989 -2.802589
v 3.939237 5.060568 -3.103630
v 3.937634 5.007088 -3.348003
v 3.975505 5.043341 -3.348003
v 3.939237 5.041807 -3.266310
v 3.909796 5.043341 -2.802589
v 3.909796 5.007088 -3.116934
v 3.919638 5.041807 -3.103630
v 4.771827 4.172185 3.807311
v 4.847667 4.244786 3.807311
v 4.771827 4.244786 4.436826
v 4.809698 4.181885 3.807312
v 4.771827 4.181885 4.121656
v 4.808095 4.191306 4.108353
v 4.837535 4.244786 4.121656
v 4.837535 4.208533 3.807312
v 4.827693 4.210067 4.108353
v 4.771827 4.208533 4.352726
v 4.809698 4.244786 4.352726
v 4.808095 4.210067 4.271033
v 4.771827 5.079689 3.807311
v 4.771827 5.007088 4.436826
v 4.847667 5.007088 3.807311
v 4.771827 5.069989 4.121656
v 4.809698 5.069989 3.807312
v 4.808095 5.060568 4.108353
v 4.809698 5.007088 4.352726
v 4.771827 5.043341 4.352726
v 4.808095 5.041807 4.271033
v 4.837535 5.043341 3.807312
v 4.837535 5.007088 4.121656
v 4.827693 5.041807 4.108353
v 4.771827 4.172185 -2.802589
v 4.771827 4.244786 -3.432104
v 4.847667 4.244786 -2.802589
v 4.771827 4.181885 -3.116934
v 4.809698 4.181885 -2.802589
v 4.808095 4.191306 -3.103630
v 4.809698 4.244786 -3.348003
v 4.771827 4.208533 -3.348003
v 4.808095 4.210067 -3.266310
v 4.837535 4.208533 -2.802589
v 4.837535 4.244786 -3.116934
v 4.827693 4.210067 -3.103630
v 4.771827 5.079689 -2.802589
v 4.847667 5.007088 -2.802589
v 4.771827 5.007088 -3.432104
v 4.809698 5.069989 -2.802589
v 4.771827 5.069989 -3.116934
v 4.808095 5.060568 -3.103630
v 4.837535 5.007088 -3.116934
v 4.837535 5.043341 -2.802589
v 4.827693 5.041807 -3.103630
v 4.771827 5.043341 -3.348003
v 4.809698 5.007088 -3.348003
v 4.808095 5.041807 -3.266310
vt 0.395000 0.770000
vt 0.605000 0.770000
vt 0.605000 0.980000
vt 0.395000 0.980000
vt 0.395000 0.520000
vt 0.605000 0.520000
vt 0.605000 0.730000
vt 0.395000 0.730000
vt 0.645000 0.520000
vt 0.855000 0.520000
vt 0.855000 0.730000
vt 0.645000 0.730000
vt 0.395000 0.020000
vt 0.605000 0.020000
vt 0.605000 0.230000
vt 0.395000 0.230000
vt 0.395000 0.270000
vt 0.605000 0.270000
vt 0.605000 0.480000
vt 0.395000 0.480000
vt 0.145000 0.730000
vt 0.145000 0.739987
vt 0.135436 0.739564
vt 0.135013 0.730000
vt 0.145000 0.750000
vt 0.135436 0.750000
vt 0.395000 1.000000
vt 0.375000 0.989564
vt 0.375000 0.980000
vt 0.395000 0.000000
vt 0.395000 0.010013
vt 0.375000 0.010436
vt 0.375000 0.000000
vt 0.375000 0.020000
vt 0.125000 0.730000
vt 0.125000 0.739564
vt 0.614987 0.980000
vt 0.614564 1.000000
vt 0.605000 1.000000
vt 0.625000 0.980000
vt 0.625000 1.000000
vt 0.875000 0.730000
vt 0.875000 0.739564
vt 0.855000 0.750000
vt 0.625000 0.020000
vt 0.614987 0.020000
vt 0.614564 0.010436
vt 0.625000 0.010436
vt 0.605000 0.010013
vt 0.605000 0.000000
vt 0.614564 0.000000
vt 0.145000 0.520000
vt 0.135013 0.520000
vt 0.135436 0.510436
vt 0.145000 0.510013
vt 0.125000 0.520000
vt 0.125000 0.510436
vt 0.395000 0.239987
vt 0.375000 0.239564
vt 0.375000 0.230000
vt 0.395000 0.260013
vt 0.375000 0.260436
vt 0.375000 0.270000
vt 0.145000 0.500000
vt 0.135436 0.500000
vt 0.855000 0.500000
vt 0.875000 0.510436
vt 0.875000 0.520000
vt 0.625000 0.270000
vt 0.614987 0.270000
vt 0.614564 0.260436
vt 0.625000 0.250000
vt 0.605000 0.260013
vt 0.605000 0.239987
vt 0.614564 0.239564
vt 0.614987 0.230000
vt 0.625000 0.230000
vt 0.625000 0.239564
vt 0.614564 0.244733
vt 0.355000 0.730000
vt 0.364987 0.730000
vt 0.364564 0.739564
vt 0.355000 0.739987
vt 0.385013 0.730000
vt 0.385436 0.739564
vt 0.395000 0.739987
vt 0.395000 0.760013
vt 0.375000 0.760436
vt 0.375000 0.770000
vt 0.355000 0.750000
vt 0.364564 0.750000
vt 0.369733 0.739564
vt 0.645000 0.750000
vt 0.635436 0.750000
vt 0.635013 0.730000
vt 0.625000 0.770000
vt 0.614987 0.770000
vt 0.614564 0.760436
vt 0.625000 0.760436
vt 0.605000 0.760013
vt 0.605000 0.739987
vt 0.614564 0.739564
vt 0.614987 0.730000
vt 0.614564 0.755267
vt 0.355000 0.520000
vt 0.355000 0.510013
vt 0.364564 0.510436
vt 0.364987 0.520000
vt 0.355000 0.500000
vt 0.364564 0.500000
vt 0.395000 0.489987
vt 0.375000 0.489564
vt 0.375000 0.480000
vt 0.395000 0.510013
vt 0.385436 0.510436
vt 0.385013 0.520000
vt 0.369733 0.510436
vt 0.635013 0.520000
vt 0.635436 0.500000
vt 0.645000 0.500000
vt 0.614987 0.520000
vt 0.614564 0.510436
vt 0.605000 0.510013
vt 0.605000 0.489987
vt 0.614564 0.489564
vt 0.614987 0.480000
vt 0.625000 0.480000
vt 0.625000 0.489564
vt 0.614564 0.494733
vn 0.0000 0.0000 1.0000
vn 1.0000 0.0000 0.0000
vn 0.0000 1.0000 0.0000
vn -1.0000 0.0000 0.0000
vn 0.0000 0.0000 -1.0000
vn -0.2548 -0.9665 0.0307
vn -0.2874 -0.9515 0.1097
vn -0.6619 -0.6914 0.2896
vn -0.9436 -0.3110 0.1137
vn -0.9605 -0.2763 0.0319
vn -0.6913 -0.7221 0.0263
vn -0.6891 -0.7199 0.0830
vn -0.6619 0.6914 0.2896
vn -0.2874 0.9515 0.1097
vn -0.2548 0.9665 0.0307
vn -0.6913 0.7221 0.0263
vn -0.9605 0.2763 0.0319
vn -0.9436 0.3110 0.1137
vn -0.6891 0.7199 0.0830
vn -0.2548 -0.9665 -0.0307
vn -0.6913 -0.7221 -0.0263
vn -0.9605 -0.2763 -0.0319
vn -0.9436 -0.3110 -0.1137
vn -0.6619 -0.6914 -0.2896
vn -0.2874 -0.9515 -0.1097
vn -0.6891 -0.7199 -0.0830
vn -0.2548 0.9665 -0.0307
vn -0.2874 0.9515 -0.1097
vn -0.6619 0.6914 -0.2896
vn -0.9436 0.3110 -0.1137
vn -0.9605 0.2763 -0.0319
vn -0.6913 0.7221 -0.0263
vn -0.6891 0.7199 -0.0830
vn 0.2548 -0.9665 0.0307
vn 0.6913 -0.7221 0.0263
vn 0.9605 -0.2763 0.0319
vn 0.9436 -0.3110 0.1137
vn 0.6619 -0.6914 0.2896
vn 0.2874 -0.9515 0.1097
vn 0.6891 -0.7199 0.0830
vn 0.2548 0.9665 0.0307
vn 0.2874 0.9515 0.1097
vn 0.6619 0.6914 0.2896
vn 0.9436 0.3110 0.1137
vn 0.9605 0.2763 0.0319
vn 0.6913 0.7221 0.0263
vn 0.6891 0.7199 0.0830
vn 0.2548 -0.9665 -0.0307
vn 0.2874 -0.9515 -0.1097
vn 0.6619 -0.6914 -0.2896
vn 0.9436 -0.3110 -0.1137
vn 0.9605 -0.2763 -0.0319
vn 0.6913 -0.7221 -0.0263
vn 0.6891 -0.7199 -0.0830
vn 0.2548 0.9665 -0.0307
vn 0.6913 0.7221 -0.0263
vn 0.9605 0.2763 -0.0319
vn 0.9436 0.3110 -0.1137
vn 0.6619 0.6914 -0.2896
vn 0.2874 0.9515 -0.1097
vn 0.6891 0.7199 -0.0830
vn -0.2481 -0.9687 0.0000
vn -0.6915 -0.7224 0.0000
vn -0.9631 -0.2692 0.0000
vn -0.9118 0.0000 0.4106
vn -0.9928 0.0000 0.1196
vn -0.9995 0.0000 0.0322
vn -0.2481 0.9687 0.0000
vn -0.6915 0.7224 0.0000
vn -0.9631 0.2692 0.0000
vn -0.9118 0.0000 -0.4106
vn -0.9928 0.0000 -0.1196
vn -0.9995 0.0000 -0.0322
vn 0.0000 -0.9995 -0.0308
vn 0.0000 -0.9934 -0.1146
vn 0.0000 -0.9183 -0.3959
vn 0.0000 0.9995 -0.0308
vn 0.0000 0.9934 -0.1146
vn 0.0000 0.9183 -0.3959
vn 0.9995 0.0000 -0.0322
vn 0.9928 0.0000 -0.1196
vn 0.9118 0.0000 -0.4106
vn 0.2481 -0.9687 0.0000
vn 0.6915 -0.7224 0.0000
vn 0.9631 -0.2692 0.0000
vn 0.2481 0.9687 0.0000
vn 0.6915 0.7224 0.0000
vn 0.9631 0.2692 0.0000
vn 0.9118 0.0000 0.4106
vn 0.9928 0.0000 0.1196
vn 0.9995 0.0000 0.0322
vn 0.0000 -0.9995 0.0308
vn 0.0000 -0.9934 0.1146
vn 0.0000 -0.9183 0.3958
vn 0.0000 0.9995 0.0308
vn 0.0000 0.9934 0.1146
vn 0.0000 0.9183 0.3958
vn 0.0000 -1.0000 0.0000
usemtl Material.001
s off
f 51/1/1 62/2/1 13/3/1 2/4/1
f 75/5/2 86/6/2 63/7/2 50/8/2
f 85/9/3 37/10/3 14/11/3 61/12/3
f 3/13/4 15/14/4 39/15/4 26/16/4
f 27/17/5 38/18/5 87/19/5 74/20/5
f 1/21/6 4/22/6 6/23/6 5/24/6
f 4/22/7 8/25/7 9/26/7 6/23/7
f 2/4/8 7/27/8 9/28/8 8/29/8
f 7/30/9 11/31/9 12/32/9 9/33/9
f 3/13/10 10/34/10 12/32/10 11/31/10
f 10/35/11 5/24/11 6/23/11 12/36/11
f 6/23/12 9/26/12 12/36/12
f 13/3/13 16/37/13 18/38/13 17/39/13
f 16/37/14 20/40/14 21/41/14 18/38/14
f 14/11/15 19/42/15 21/43/15 20/44/15
f 19/45/16 23/46/16 24/47/16 21/48/16
f 15/14/17 22/49/17 24/47/17 23/46/17
f 22/49/18 17/50/18 18/51/18 24/47/18
f 18/51/19 21/48/19 24/47/19
f 25/52/20 28/53/20 30/54/20 29/55/20
f 28/53/21 32/56/21 33/57/21 30/54/21
f 26/16/22 31/58/22 33/59/22 32/60/22
f 31/58/23 35/61/23 36/62/23 33/59/23
f 27/17/24 34/63/24 36/62/24 35/61/24
f 34/64/25 29/55/25 30/54/25 36/65/25
f 30/54/26 33/57/26 36/65/26
f 37/10/27 40/66/27 42/67/27 41/68/27
f 40/69/28 44/70/28 45/71/28 42/72/28
f 38/18/29 43/73/29 45/71/29 44/70/29
f 43/73/30 47/74/30 48/75/30 45/71/30
f 39/15/31 46/76/31 48/75/31 47/74/31
f 46/76/32 41/77/32 42/78/32 48/75/32
f 42/78/33 45/79/33 48/75/33
f 49/80/34 52/81/34 54/82/34 53/83/34
f 52/81/35 56/84/35 57/85/35 54/82/35
f 50/8/36 55/86/36 57/85/36 56/84/36
f 55/86/37 59/87/37 60/88/37 57/85/37
f 51/1/38 58/89/38 60/88/38 59/87/38
f 58/90/39 53/83/39 54/82/39 60/91/39
f 54/82/40 57/92/40 60/91/40
f 61/12/41 64/93/41 66/94/41 65/95/41
f 64/96/42 68/97/42 69/98/42 66/99/42
f 62/2/43 67/100/43 69/98/43 68/97/43
f 67/100/44 71/101/44 72/102/44 69/98/44
f 63/7/45 70/103/45 72/102/45 71/101/45
f 70/103/46 65/95/46 66/94/46 72/102/46
f 66/99/47 69/98/47 72/104/47
f 73/105/48 76/106/48 78/107/48 77/108/48
f 76/106/49 80/109/49 81/110/49 78/107/49
f 74/20/50 79/111/50 81/112/50 80/113/50
f 79/111/51 83/114/51 84/115/51 81/112/51
f 75/5/52 82/116/52 84/115/52 83/114/52
f 82/116/53 77/108/53 78/107/53 84/115/53
f 78/107/54 81/110/54 84/117/54
f 85/9/55 88/118/55 90/119/55 89/120/55
f 88/118/56 92/121/56 93/122/56 90/119/56
f 86/6/57 91/123/57 93/122/57 92/121/57
f 91/123/58 95/124/58 96/125/58 93/122/58
f 87/19/59 94/126/59 96/125/59 95/124/59
f 94/126/60 89/127/60 90/128/60 96/125/60
f 90/128/61 93/129/61 96/125/61
f 25/52/62 1/21/62 5/24/62 28/53/62
f 28/53/63 5/24/63 10/35/63 32/56/63
f 32/60/64 10/34/64 3/13/64 26/16/64
f 2/4/65 13/3/65 17/39/65 7/27/65
f 7/30/66 17/50/66 22/49/66 11/31/66
f 11/31/67 22/49/67 15/14/67 3/13/67
f 14/11/68 37/10/68 41/68/68 19/42/68
f 19/45/69 41/77/69 46/76/69 23/46/69
f 23/46/70 46/76/70 39/15/70 15/14/70
f 38/18/71 27/17/71 35/61/71 43/73/71
f 43/73/72 35/61/72 31/58/72 47/74/72
f 47/74/73 31/58/73 26/16/73 39/15/73
f 73/105/74 25/52/74 29/55/74 76/106/74
f 76/106/75 29/55/75 34/64/75 80/109/75
f 80/113/76 34/63/76 27/17/76 74/20/76
f 37/10/77 85/9/77 89/120/77 40/66/77
f 40/69/78 89/127/78 94/126/78 44/70/78
f 44/70/79 94/126/79 87/19/79 38/18/79
f 86/6/80 75/5/80 83/114/80 91/123/80
f 91/123/81 83/114/81 79/111/81 95/124/81
f 95/124/82 79/111/82 74/20/82 87/19/82
f 49/80/83 73/105/83 77/108/83 52/81/83
f 52/81/84 77/108/84 82/116/84 56/84/84
f 56/84/85 82/116/85 75/5/85 50/8/85
f 85/9/86 61/12/86 65/95/86 88/118/86
f 88/118/87 65/95/87 70/103/87 92/121/87
f 92/121/88 70/103/88 63/7/88 86/6/88
f 62/2/89 51/1/89 59/87/89 67/100/89
f 67/100/90 59/87/90 55/86/90 71/101/90
f 71/101/91 55/86/91 50/8/91 63/7/91
f 1/21/92 49/80/92 53/83/92 4/22/92
f 4/22/93 53/83/93 58/90/93 8/25/93
f 8/29/94 58/89/94 51/1/94 2/4/94
f 61/12/95 14/11/95 20/44/95 64/93/95
f 64/96/96 20/40/96 16/37/96 68/97/96
f 68/97/97 16/37/97 13/3/97 62/2/97
f 25/52/98 73/105/98 49/80/98 1/21/98
o Cube.001_Cube.002
v 2.662519 3.918698 5.160337
v 2.662519 3.985069 5.235247
v 2.470268 3.985069 5.160337
v 2.662519 5.179747 5.235247
v 2.662519 5.246118 5.160337
v 2.470268 5.179747 5.160337
v 2.662519 3.918698 3.811956
v 2.470268 3.985069 3.811956
v 2.662519 3.985069 3.737046
v 2.662519 5.246118 3.811956
v 2.662519 5.179747 3.737046
v 2.470268 5.179747 3.811956
v 6.123028 3.918698 5.160337
v 6.315278 3.985069 5.160337
v 6.123028 3.985069 5.235247
v 6.123028 5.246118 5.160337
v 6.123028 5.179747 5.235247
v 6.315278 5.179747 5.160337
v 6.123028 3.918698 3.811956
v 6.123028 3.985069 3.737046
v 6.315278 3.985069 3.811956
v 6.123028 5.246118 3.811956
v 6.315278 5.179747 3.811956
v 6.123028 5.179747 3.737046
vt 0.387500 0.762500
vt 0.612500 0.762500
vt 0.612500 0.987500
vt 0.387500 0.987500
vt 0.387500 0.512500
vt 0.612500 0.512500
vt 0.612500 0.737500
vt 0.387500 0.737500
vt 0.637500 0.512500
vt 0.862500 0.512500
vt 0.862500 0.737500
vt 0.637500 0.737500
vt 0.387500 0.012500
vt 0.612500 0.012500
vt 0.612500 0.237500
vt 0.387500 0.237500
vt 0.387500 0.262500
vt 0.612500 0.262500
vt 0.612500 0.487500
vt 0.387500 0.487500
vt 0.137500 0.737500
vt 0.137500 0.750000
vt 0.125000 0.737500
vt 0.612500 0.000000
vt 0.625000 0.012500
vt 0.137500 0.512500
vt 0.125000 0.512500
vt 0.137500 0.500000
vt 0.625000 0.237500
vt 0.612500 0.250000
vt 0.362500 0.737500
vt 0.375000 0.737500
vt 0.362500 0.750000
vt 0.625000 0.762500
vt 0.612500 0.750000
vt 0.362500 0.512500
vt 0.362500 0.500000
vt 0.375000 0.512500
vt 0.625000 0.487500
vt 0.612500 0.500000
vt 0.387500 0.000000
vt 0.625000 0.262500
vt 0.625000 0.987500
vn 0.0000 0.0000 1.0000
vn 1.0000 0.0000 0.0000
vn 0.0000 1.0000 0.0000
vn -1.0000 0.0000 0.0000
vn 0.0000 0.0000 -1.0000
vn -0.2502 -0.7247 0.6421
vn -0.2502 0.7247 0.6421
vn -0.2502 -0.7247 -0.6421
vn -0.2502 0.7247 -0.6421
vn 0.2502 -0.7247 0.6421
vn 0.2502 0.7247 0.6421
vn 0.2502 -0.7247 -0.6421
vn 0.2502 0.7247 -0.6421
vn -0.3263 -0.9453 0.0000
vn -0.3631 0.0000 0.9318
vn -0.3263 0.9453 0.0000
vn -0.3631 0.0000 -0.9318
vn 0.0000 -0.7485 -0.6632
vn 0.0000 0.7485 -0.6632
vn 0.3631 0.0000 -0.9318
vn 0.3263 -0.9453 0.0000
vn 0.3263 0.9453 0.0000
vn 0.3631 0.0000 0.9318
vn 0.0000 -0.7485 0.6632
vn 0.0000 0.7485 0.6632
vn 0.0000 -1.0000 0.0000
usemtl Material.002
s off
f 111/130/99 113/131/99 100/132/99 98/133/99
f 117/134/100 119/135/100 114/136/100 110/137/100
f 118/138/101 106/139/101 101/140/101 112/141/101
f 99/142/102 102/143/102 108/144/102 104/145/102
f 105/146/103 107/147/103 120/148/103 116/149/103
f 97/150/104 98/151/104 99/152/104
f 100/153/105 101/154/105 102/143/105
f 103/155/106 104/156/106 105/157/106
f 106/158/107 107/159/107 108/144/107
f 109/160/108 110/161/108 111/162/108
f 112/163/109 113/131/109 114/164/109
f 115/165/110 116/166/110 117/167/110
f 118/168/111 119/169/111 120/148/111
f 103/155/112 97/150/112 99/152/112 104/156/112
f 98/170/113 100/153/113 102/143/113 99/142/113
f 101/154/114 106/158/114 108/144/114 102/143/114
f 107/147/115 105/146/115 104/145/115 108/144/115
f 115/165/116 103/155/116 105/157/116 116/166/116
f 106/171/117 118/168/117 120/148/117 107/147/117
f 119/135/118 117/134/118 116/149/118 120/148/118
f 109/160/119 115/165/119 117/134/119 110/137/119
f 118/138/120 112/141/120 114/136/120 119/135/120
f 113/131/121 111/130/121 110/137/121 114/136/121
f 97/150/122 109/160/122 111/162/122 98/151/122
f 112/163/123 101/172/123 100/132/123 113/131/123
f 103/155/124 115/165/124 109/160/124 97/150/124
