# Blender v3.6.1 OBJ File: ''
# www.blender.org
mtllib untitled.mtl
o Cube
v 0.299152 0.776217 -1.290051
v 0.299152 0.388865 -1.290051
v 0.299152 0.776217 1.269615
v 0.299152 0.388865 1.269615
v -0.363200 0.776217 -1.290051
v -0.363200 0.388865 -1.290051
v -0.363200 0.776217 1.269615
v -0.363200 0.388865 1.269615
vt 0.625000 0.500000
vt 0.875000 0.500000
vt 0.875000 0.750000
vt 0.625000 0.750000
vt 0.375000 0.750000
vt 0.625000 1.000000
vt 0.375000 1.000000
vt 0.375000 0.000000
vt 0.625000 0.000000
vt 0.625000 0.250000
vt 0.375000 0.250000
vt 0.125000 0.500000
vt 0.375000 0.500000
vt 0.125000 0.750000
vn 0.0000 1.0000 0.0000
vn 0.0000 0.0000 1.0000
vn -1.0000 0.0000 0.0000
vn 0.0000 -1.0000 0.0000
vn 1.0000 0.0000 0.0000
vn 0.0000 0.0000 -1.0000
usemtl Material
s off
f 1/1/1 5/2/1 7/3/1 3/4/1
f 4/5/2 3/4/2 7/6/2 8/7/2
f 8/8/3 7/9/3 5/10/3 6/11/3
f 6/12/4 2/13/4 4/5/4 8/14/4
f 2/13/5 1/1/5 3/4/5 4/5/5
f 6/11/6 5/10/6 1/1/6 2/13/6
o Cube.001_Cube.003
v 0.142242 0.646082 0.320876
v 0.142242 4.364140 0.320876
v 0.142242 0.646082 -0.402337
v 0.142242 4.364140 -0.402337
v -0.228987 0.646082 0.320876
v -0.228987 4.364140 0.320876
v -0.228987 0.646082 -0.402337
v -0.228987 4.364140 -0.402337
vt 0.375000 0.000000
vt 0.625000 0.000000
vt 0.625000 0.250000
vt 0.375000 0.250000
vt 0.375000 0.250000
vt 0.625000 0.250000
vt 0.625000 0.500000
vt 0.375000 0.500000
vt 0.375000 0.500000
vt 0.625000 0.500000
vt 0.625000 0.750000
vt 0.375000 0.750000
vt 0.375000 0.750000
vt 0.625000 0.750000
vt 0.625000 1.000000
vt 0.375000 1.000000
vt 0.125000 0.500000
vt 0.375000 0.500000
vt 0.125000 0.750000
vt 0.875000 0.500000
vt 0.875000 0.750000
vt 0.625000 0.750000
vn 1.0000 0.0000 0.0000
vn 0.0000 0.0000 -1.0000
vn -1.0000 0.0000 0.0000
vn 0.0000 0.0000 1.0000
vn 0.0000 -1.0000 0.0000
vn 0.0000 1.0000 0.0000
usemtl Material.002
s off
f 9/15/7 11/16/7 12/17/7 10/18/7
f 11/19/8 15/20/8 16/21/8 12/22/8
f 15/23/9 13/24/9 14/25/9 16/26/9
f 13/27/10 9/28/10 10/29/10 14/30/10
f 11/31/11 9/32/11 13/27/11 15/33/11
f 16/21/12 14/34/12 10/35/12 12/36/12
o Cube.002_Cube.004
v -0.243902 4.269058 0.360864
v -0.064926 5.358246 -0.053140
v -0.225765 4.273795 -0.411861
v -0.097633 5.376425 -0.163883
v 0.175896 4.282633 0.341203
v -0.057401 5.458351 -0.071324
v 0.166684 4.268401 -0.413797
v -0.070221 5.436915 -0.158586
vt 0.375000 0.000000
vt 0.625000 0.000000
vt 0.625000 0.250000
vt 0.375000 0.250000
vt 0.625000 0.500000
vt 0.375000 0.500000
vt 0.625000 0.750000
vt 0.375000 0.750000
vt 0.625000 1.000000
vt 0.375000 1.000000
vt 0.125000 0.500000
vt 0.125000 0.750000
vt 0.875000 0.500000
vt 0.875000 0.750000
vn -0.9899 0.1402 0.0200
vn -0.0204 0.2153 -0.9763
vn 0.9803 0.1944 -0.0339
vn -0.0080 0.3426 0.9394
vn 0.0102 -0.9999 0.0063
vn -0.9506 0.2240 0.2149
usemtl Material.003
s off
f 17/37/13 18/38/13 20/39/13 19/40/13
f 19/40/14 20/39/14 24/41/14 23/42/14
f 23/42/15 24/41/15 22/43/15 21/44/15
f 21/44/16 22/43/16 18/45/16 17/46/16
f 19/47/17 23/42/17 21/44/17 17/48/17
f 24/41/18 20/49/18 18/50/18 22/43/18
o Cube.003_Cube.005
v -0.268662 -1.418138 0.328489
v -0.268662 0.581862 0.328489
v -0.268662 -1.418138 -0.435755
v -0.268662 0.581862 -0.435755
v 0.184084 -1.418138 0.328489
v 0.184084 0.581862 0.328489
v 0.184084 -1.418138 -0.435755
v 0.184084 0.581862 -0.435755
vt 0.375000 0.000000
vt 0.625000 0.000000
vt 0.625000 0.250000
vt 0.375000 0.250000
vt 0.625000 0.500000
vt 0.375000 0.500000
vt 0.625000 0.750000
vt 0.375000 0.750000
vt 0.625000 1.000000
vt 0.375000 1.000000
vt 0.125000 0.500000
vt 0.125000 0.750000
vt 0.875000 0.500000
vt 0.875000 0.750000
vn -1.0000 0.0000 0.0000
vn 0.0000 0.0000 -1.0000
vn 1.0000 0.0000 0.0000
vn 0.0000 0.0000 1.0000
vn 0.0000 -1.0000 0.0000
vn 0.0000 1.0000 0.0000
usemtl Material.001
s off
f 25/51/19 26/52/19 28/53/19 27/54/19
f 27/54/20 28/53/20 32/55/20 31/56/20
f 31/56/21 32/55/21 30/57/21 29/58/21
f 29/58/22 30/57/22 26/59/22 25/60/22
f 27/61/23 31/56/23 29/58/23 25/62/23
f 32/55/24 28/63/24 26/64/24 30/57/24
